# xmcd CD database file
#
# Track frame offsets:
#	150
#	22772
#	35450
#	54827
#	71076
#	88094
#	111201
#	139603
#	155787
#	171154
#	182802
#	197553
#	212085
#	227326
#	259302
#	272531
#	287078
#	304880
#
# Disc length: 4402 seconds
#
# Revision: 5
# Processed by: cddbd v1.5.2PL0 Copyright (c) Steve Scherf et al.
# Submitted via: CDex 1.50
#
DISCID=fc113012
DTITLE=Verschiedene - Saxophone Ballads
DYEAR=2006
DGENRE=Jazz
TTITLE0=The Shadow Of Your Smile (Dexter Gordon)
TTITLE1=Summertime - Charlie Parker
TTITLE2=Awful Lonely - Al Cohn and Zoot Sims Quintet 
TTITLE3=The Sweetest Girl I've Ever Known - Hans Koller
TTITLE4=Misty - Max Greger
TTITLE5=Melinda - Stan Getz
TTITLE6=Candlelight - Joe Henderson
TTITLE7=Stardust - Lester Young
TTITLE8=Passion Flower - Johnny Hodges
TTITLE9=Falling In Love With Love - Cannonball Adderley
TTITLE10=I Didn't Know What Time It Was - Klaus Doldinger
TTITLE11=Nancy (With The Laughing Face) - John Coltrane
TTITLE12=Blues Greasy - Sonny Stitt
TTITLE13=Spring Can Really Hang You Up The Most - Nathan Davis
TTITLE14=Georgia On My Mind - Don Byas
TTITLE15=Memories Of You - Lee Konitz
TTITLE16=Like Someone In Love - Coleman Hawkins
TTITLE17=In The Small Hours Of The Morning - Gerry Mulligan
EXTD=YEAR: 2006
EXTT0=
EXTT1=
EXTT2=
EXTT3=
EXTT4=
EXTT5=
EXTT6=
EXTT7=
EXTT8=
EXTT9=
EXTT10=
EXTT11=
EXTT12=
EXTT13=
EXTT14=
EXTT15=
EXTT16=
EXTT17=
PLAYORDER=
